<svg xmlns="http://www.w3.org/2000/svg" viewBox="0 0 36.44 38.7"><defs><style>.cls-1{fill:none;}.cls-1,.cls-2{stroke:#978ea1;stroke-linecap:round;stroke-linejoin:round;stroke-width:3px;}.cls-2,.cls-3{fill:#978ea1;}</style></defs><g id="レイヤー_2" data-name="レイヤー 2"><g id="デザイン"><path class="cls-1" d="M1.5,1.5c1.94.65,4.91,1.16,5.69,3,.17.41.56,1.61,1,3.23C10,13.36,13,24.13,13,24.13"/><path class="cls-1" d="M9.26,8.1H32.54c1.55,0,2.71.64,2.32,2.32s-1.68,8.28-1.81,8.93-.13,2.06-3.23,2.58-14.1,1.94-15.52,2.46-3.75,1.29-3.49,3.36a2.74,2.74,0,0,0,2.72,2.59c1,.13,17.84.13,17.84.13"/><circle class="cls-2" cx="14.53" cy="35.08" r="2.13"/><circle class="cls-2" cx="28.96" cy="35.08" r="2.13"/><polygon class="cls-3" points="8.93 8.1 13.72 24.06 32.08 20.87 35.27 8.89 8.93 8.1"/></g></g></svg>