<svg xmlns="http://www.w3.org/2000/svg" viewBox="0 0 35.5 33.83"><defs><style>.cls-1{fill:#fff;}</style></defs><g id="レイヤー_2" data-name="レイヤー 2"><g id="レイヤー_1-2" data-name="レイヤー 1"><path class="cls-1" d="M35.5,14.41C35.5,6.46,27.54,0,17.75,0S0,6.46,0,14.41c0,7.12,6.32,13.08,14.85,14.21.57.12,1.36.38,1.56.87a3.65,3.65,0,0,1,.06,1.61s-.21,1.25-.26,1.52c-.07.45-.35,1.75,1.54,1s10.22-6,14-10.31h0A12.83,12.83,0,0,0,35.5,14.41Zm-24,4.24a.35.35,0,0,1-.35.34h-5a.34.34,0,0,1-.24-.09h0a.37.37,0,0,1-.1-.24h0V10.91a.35.35,0,0,1,.35-.34H7.41a.34.34,0,0,1,.35.34v6.15h3.38a.35.35,0,0,1,.35.34Zm3,0a.34.34,0,0,1-.35.34H12.9a.35.35,0,0,1-.35-.34V10.91a.35.35,0,0,1,.35-.34h1.24a.34.34,0,0,1,.35.34Zm8.57,0a.34.34,0,0,1-.34.34H21.3l0,0h0a.3.3,0,0,1-.08-.08l-3.55-4.8v4.6a.35.35,0,0,1-.35.34H16.05a.35.35,0,0,1-.35-.34V10.91a.35.35,0,0,1,.35-.34H17.5l0,0h0l0,0h0l0,0,3.54,4.79v-4.6a.35.35,0,0,1,.35-.34h1.25a.34.34,0,0,1,.34.34Zm6.88-6.49a.35.35,0,0,1-.35.34H26.21v1.31h3.38a.35.35,0,0,1,.35.35V15.4a.35.35,0,0,1-.35.35H26.21v1.31h3.38a.35.35,0,0,1,.35.34v1.25a.35.35,0,0,1-.35.34h-5a.32.32,0,0,1-.24-.09h0a.37.37,0,0,1-.1-.24h0V10.91h0a.37.37,0,0,1,.1-.24h0a.32.32,0,0,1,.24-.09h5a.35.35,0,0,1,.35.34Z"/></g></g></svg>