<svg id="logo" xmlns="http://www.w3.org/2000/svg" xmlns:xlink="http://www.w3.org/1999/xlink" viewBox="0 0 536.746 135.972"><style type="text/css"><![CDATA[.st0{fill:#fff;}]]></style>
<polygon class="st0" points="181.672,123.824 180.084,123.824 180.084,135.748 188.071,135.748 188.071,134.32 181.672,134.32 "/>
<path class="st0" d="M197.621,123.824l-4.793,11.922h1.693l1.376-3.551h4.858l1.393,3.551h1.705l-4.677-11.922H197.621z
	 M200.196,130.767h-3.769l1.918-4.908L200.196,130.767z"/>
<path class="st0" d="M224.132,123.824h-4.208v11.924h0.25h3.958c1.8-0.045,3.181-0.563,4.104-1.543
	c0.921-0.977,1.387-2.463,1.387-4.42c0-1.955-0.466-3.441-1.387-4.418C227.312,124.386,225.931,123.867,224.132,123.824
	 M221.512,125.251h2.069c0.794,0,1.484,0.086,2.049,0.254c0.549,0.162,1.006,0.424,1.359,0.777c0.352,0.352,0.617,0.816,0.785,1.383
	c0.174,0.582,0.261,1.295,0.261,2.119s-0.087,1.539-0.261,2.121c-0.169,0.566-0.433,1.031-0.785,1.383s-0.81,0.613-1.359,0.775
	c-0.566,0.168-1.255,0.254-2.049,0.254h-2.069V125.251z"/>
<path class="st0" d="M245.504,125.474c-0.47-0.574-1.063-1.039-1.765-1.377c-0.702-0.342-1.53-0.514-2.461-0.514
	c-0.93,0-1.76,0.172-2.467,0.512c-0.708,0.34-1.305,0.805-1.775,1.379c-0.467,0.574-0.821,1.24-1.053,1.98
	c-0.23,0.736-0.347,1.52-0.347,2.33s0.117,1.596,0.347,2.332c0.232,0.74,0.587,1.402,1.054,1.973
	c0.47,0.568,1.067,1.029,1.773,1.369c0.709,0.34,1.539,0.514,2.468,0.514c0.93,0,1.758-0.174,2.461-0.514
	c0.701-0.34,1.295-0.801,1.764-1.369c0.467-0.566,0.821-1.23,1.053-1.973c0.231-0.734,0.348-1.52,0.348-2.332
	s-0.117-1.598-0.347-2.33C246.324,126.712,245.97,126.046,245.504,125.474 M245.316,129.785c0,0.596-0.081,1.189-0.239,1.768
	c-0.157,0.57-0.402,1.086-0.729,1.533c-0.322,0.441-0.74,0.803-1.243,1.07c-0.5,0.268-1.115,0.402-1.827,0.402
	s-1.329-0.135-1.834-0.402c-0.51-0.27-0.931-0.629-1.252-1.07c-0.327-0.447-0.572-0.963-0.729-1.533
	c-0.158-0.58-0.239-1.174-0.239-1.768c0-0.604,0.081-1.199,0.239-1.773c0.156-0.564,0.402-1.08,0.73-1.527
	c0.321-0.439,0.742-0.801,1.25-1.07c0.506-0.268,1.123-0.402,1.835-0.402s1.326,0.135,1.827,0.402
	c0.502,0.268,0.92,0.629,1.243,1.07c0.328,0.449,0.573,0.963,0.729,1.529C245.235,128.583,245.316,129.179,245.316,129.785"/>
<polygon class="st0" points="255.369,123.824 253.781,123.824 253.781,135.748 261.768,135.748 261.768,134.32 255.369,134.32 "/>
<path class="st0" d="M276.166,131.119c-0.051,0.486-0.168,0.943-0.349,1.357c-0.181,0.416-0.418,0.783-0.705,1.09
	c-0.285,0.305-0.63,0.549-1.023,0.727c-0.393,0.178-0.843,0.266-1.338,0.266c-0.713,0-1.33-0.135-1.835-0.402
	c-0.509-0.27-0.93-0.629-1.252-1.07c-0.326-0.447-0.571-0.963-0.727-1.535c-0.159-0.576-0.24-1.17-0.24-1.766
	c0-0.605,0.081-1.201,0.24-1.773c0.154-0.564,0.399-1.078,0.727-1.527c0.323-0.441,0.744-0.803,1.251-1.07
	c0.506-0.268,1.123-0.402,1.836-0.402c0.387,0,0.763,0.059,1.115,0.172c0.35,0.113,0.676,0.281,0.968,0.498
	c0.288,0.217,0.536,0.486,0.737,0.805c0.202,0.32,0.35,0.689,0.439,1.098l0.043,0.195h1.572l-0.035-0.279
	c-0.078-0.631-0.271-1.197-0.571-1.686c-0.297-0.482-0.674-0.896-1.119-1.229c-0.444-0.332-0.944-0.584-1.484-0.75
	c-0.539-0.168-1.1-0.252-1.665-0.252c-0.93,0-1.761,0.172-2.469,0.514c-0.707,0.338-1.303,0.803-1.773,1.377
	c-0.466,0.572-0.82,1.238-1.052,1.98c-0.231,0.732-0.348,1.518-0.348,2.33s0.117,1.598,0.348,2.332
	c0.232,0.742,0.586,1.406,1.053,1.973c0.47,0.568,1.065,1.029,1.772,1.369c0.709,0.34,1.54,0.514,2.469,0.514
	c0.699,0,1.346-0.113,1.922-0.338c0.578-0.225,1.088-0.549,1.516-0.965c0.427-0.416,0.778-0.926,1.046-1.518
	c0.267-0.588,0.44-1.254,0.517-1.98l0.029-0.275h-1.591L276.166,131.119z"/>
<polygon class="st0" points="286.024,130.308 292.392,130.308 292.392,128.878 286.024,128.878 286.024,125.251 292.824,125.251 
	292.824,123.824 284.436,123.824 284.436,135.746 292.904,135.746 292.904,134.32 286.024,134.32 "/>
<polygon class="st0" points="313.453,133.607 309.901,123.824 308.215,123.824 312.624,135.748 314.236,135.748 318.662,123.824 
	316.975,123.824 "/>
<rect x="324.797" y="123.822" class="st0" width="1.588" height="11.924"/>
<polygon class="st0" points="332.652,125.251 336.621,125.251 336.621,135.748 338.208,135.748 338.208,125.251 342.192,125.251 
	342.192,123.824 332.652,123.824 "/>
<path class="st0" d="M351.983,123.824h-1.554l-4.793,11.922h1.692l1.376-3.551h4.858l1.393,3.551h1.705L351.983,123.824z
	 M353.004,130.767h-3.769l1.916-4.908L353.004,130.767z"/>
<path class="st0" d="M10.983,0.983v71.333c0,0.543,0.44,0.983,0.983,0.983h41.736c0.543,0,0.983,0.44,0.983,0.983v7.283
	c0,0.543-0.44,0.982-0.983,0.982H0.983C0.44,82.548,0,82.109,0,81.566V0.983C0,0.44,0.44,0,0.983,0H10
	C10.543,0,10.983,0.44,10.983,0.983"/>
<path class="st0" d="M108.092,0.625l31.489,80.582c0.252,0.646-0.224,1.341-0.916,1.341h-10.011c-0.413,0-0.783-0.259-0.924-0.648
	l-8.548-23.561c-0.141-0.389-0.511-0.648-0.924-0.648H84.714c-0.41,0-0.777,0.255-0.921,0.641l-8.773,23.575
	c-0.143,0.386-0.51,0.641-0.921,0.641h-9.094c-0.691,0-1.167-0.695-0.916-1.34L95.464,0.626C95.612,0.249,95.977,0,96.381,0h10.795
	C107.583,0,107.945,0.249,108.092,0.625 M114.083,48.442c0.68,0,1.155-0.674,0.926-1.314L101.721,9.943h-0.232l-13.51,37.18
	c-0.233,0.641,0.242,1.319,0.924,1.319H114.083z"/>
<path class="st0" d="M167.39,81.891L139.062,1.309C138.836,0.67,139.312,0,139.99,0h9.693c0.425,0,0.801,0.272,0.935,0.675
	l23.362,70.89h0.231l23.593-70.892C197.937,0.271,198.313,0,198.737,0h9.343c0.68,0,1.155,0.673,0.927,1.312L180.34,81.894
	c-0.139,0.393-0.51,0.654-0.926,0.654h-11.096C167.9,82.548,167.528,82.285,167.39,81.891"/>
<path class="st0" d="M252.321,0.625l31.488,80.582c0.252,0.646-0.225,1.341-0.915,1.341h-10.011c-0.414,0-0.783-0.259-0.926-0.648
	l-8.546-23.561c-0.141-0.389-0.511-0.648-0.924-0.648h-33.544c-0.41,0-0.777,0.255-0.921,0.641l-8.773,23.575
	c-0.143,0.386-0.51,0.641-0.921,0.641h-9.094c-0.691,0-1.167-0.695-0.916-1.34l31.375-80.582C239.841,0.249,240.205,0,240.61,0
	h10.795C251.811,0,252.174,0.249,252.321,0.625 M258.312,48.442c0.68,0,1.155-0.674,0.926-1.314L245.95,9.943h-0.232l-13.51,37.18
	c-0.233,0.641,0.242,1.319,0.924,1.319H258.312z"/>
<path class="st0" d="M309.544,0c0.333,0,0.643,0.168,0.824,0.448l43.18,66.492h0.231V0.983c0-0.543,0.44-0.983,0.983-0.983h8.438
	c0.543,0,0.983,0.44,0.983,0.983v80.582c0,0.543-0.44,0.983-0.983,0.983h-10.507c-0.333,0-0.643-0.168-0.824-0.446l-42.833-65.8
	h-0.231v65.263c0,0.543-0.44,0.983-0.983,0.983h-8.438c-0.543,0-0.983-0.44-0.983-0.983V0.983c0-0.543,0.44-0.983,0.983-0.983
	H309.544z"/>
<path class="st0" d="M414.515,0c12.717,0,22.505,3.238,29.366,9.712c6.858,6.474,10.288,16.341,10.288,29.596
	c0,6.937-0.77,13.085-2.312,18.441c-1.542,5.358-3.931,9.866-7.168,13.528c-3.236,3.66-7.361,6.455-12.37,8.381
	c-5.011,1.928-10.945,2.891-17.805,2.891h-27.342c-0.545,0-0.983-0.439-0.983-0.982V0.983c0-0.543,0.438-0.983,0.983-0.983H414.515z
	 M415.44,73.299c1.232,0,2.774-0.097,4.625-0.289c1.85-0.192,3.813-0.653,5.896-1.388c2.081-0.731,4.143-1.791,6.186-3.179
	c2.041-1.388,3.873-3.275,5.491-5.665c1.619-2.388,2.948-5.376,3.989-8.959c1.04-3.585,1.561-7.92,1.561-13.007
	c0-4.931-0.481-9.345-1.444-13.238c-0.965-3.892-2.544-7.207-4.741-9.943c-2.196-2.735-5.028-4.815-8.498-6.243
	c-3.468-1.426-7.745-2.139-12.832-2.139h-17.516c-0.543,0-0.982,0.44-0.982,0.983v62.083c0,0.543,0.439,0.983,0.982,0.983H415.44z"
	/>
<path class="st0" d="M505.189,0.625l31.488,80.582c0.252,0.646-0.225,1.341-0.915,1.341h-10.011c-0.414,0-0.783-0.259-0.926-0.648
	l-8.547-23.561c-0.141-0.389-0.511-0.648-0.924-0.648h-33.543c-0.411,0-0.778,0.255-0.922,0.641l-8.773,23.575
	c-0.143,0.386-0.51,0.641-0.921,0.641h-9.093c-0.693,0-1.168-0.695-0.917-1.34l31.376-80.582C492.708,0.249,493.073,0,493.478,0
	h10.796C504.678,0,505.042,0.249,505.189,0.625 M511.18,48.442c0.68,0,1.154-0.674,0.926-1.314L498.818,9.943h-0.231l-13.511,37.18
	c-0.232,0.641,0.242,1.319,0.925,1.319H511.18z"/>
        </svg>