<?xml version="1.0" encoding="utf-8"?>
<!-- Generator: Adobe Illustrator 24.0.3, SVG Export Plug-In . SVG Version: 6.00 Build 0)  -->
<svg version="1.1" id="レイヤー_1" xmlns="http://www.w3.org/2000/svg" xmlns:xlink="http://www.w3.org/1999/xlink" x="0px"
	 y="0px" viewBox="0 0 422 52" style="enable-background:new 0 0 422 52;" xml:space="preserve">
<style type="text/css">
	.st0{fill:#D2A3C2;}
</style>
<g>
	<path class="st0" d="M28.1,31.2h-5.8L20.5,44h-4.9l1.8-12.8h-6.7L8.8,44H4l1.8-12.8H0v-4.6h6.4l1.1-7.9H1.8v-4.6h6.3L9.9,1.3h4.9
		L13,14.1h6.8l1.8-12.8h4.9l-1.8,12.8h5.2v4.6H24l-1.1,7.9h5.2V31.2z M12.4,18.6l-1.1,7.9h6.8l1.1-7.9H12.4z"/>
	<path class="st0" d="M47.8,26.9L31.5,0.4h8.8l11.5,19.5L63.2,0.4h8.5L55.4,26.9V44h-7.6V26.9z"/>
	<path class="st0" d="M76,0.4h20.8c4.8,0,8.4,1,10.8,3.1c2.4,2.1,3.6,5,3.6,8.7c0,2.1-0.3,3.8-0.9,5.2c-0.6,1.4-1.3,2.5-2.1,3.3
		c-0.8,0.8-1.6,1.4-2.4,1.8c-0.8,0.4-1.4,0.6-1.7,0.7v0.1c0.7,0.1,1.4,0.3,2.1,0.6c0.8,0.3,1.5,0.8,2.1,1.6c0.6,0.7,1.2,1.6,1.6,2.8
		c0.4,1.1,0.6,2.6,0.6,4.3c0,2.6,0.2,4.9,0.6,7c0.4,2.1,1,3.6,1.8,4.5h-8.2c-0.6-0.9-0.9-2-1-3.1c-0.1-1.1-0.2-2.2-0.2-3.3
		c0-2-0.1-3.7-0.4-5.2c-0.2-1.4-0.7-2.6-1.3-3.6c-0.7-1-1.5-1.7-2.7-2.1C98,26.3,96.6,26,94.9,26H83.6V44H76V0.4z M83.6,20.2h12.5
		c2.4,0,4.3-0.6,5.6-1.7c1.3-1.2,1.9-2.9,1.9-5.2c0-1.4-0.2-2.5-0.6-3.4c-0.4-0.9-1-1.6-1.7-2c-0.7-0.5-1.5-0.8-2.4-1
		C97.9,6.7,97,6.6,96,6.6H83.6V20.2z"/>
	<path class="st0" d="M114.3,51.6v-3h30.5v3H114.3z"/>
	<path class="st0" d="M149.4,0.4h7.6v37h22.1V44h-29.8V0.4z"/>
	<path class="st0" d="M196.1,0.4h8.1L221,44h-8.2l-4.1-11.5h-17.4L187.3,44h-7.9L196.1,0.4z M193.4,26.6h13.3l-6.5-18.7H200
		L193.4,26.6z"/>
	<path class="st0" d="M216.4,0.4h7.9l10.9,34.5h0.1l11.2-34.5h7.7L239.4,44h-8.5L216.4,0.4z"/>
	<path class="st0" d="M266.9,0.4h8.1L291.8,44h-8.2l-4.1-11.5h-17.4L258.1,44h-7.9L266.9,0.4z M264.2,26.6h13.3L271,7.9h-0.2
		L264.2,26.6z"/>
	<path class="st0" d="M295.7,0.4h8.1l19.9,32.1h0.1V0.4h7.3V44h-8.1l-19.8-32h-0.2v32h-7.3V0.4z"/>
	<path class="st0" d="M340,0.4h18.1c3.3,0,6.2,0.6,8.7,1.7c2.4,1.1,4.4,2.7,6,4.7c1.5,2,2.7,4.3,3.4,6.9c0.8,2.6,1.1,5.5,1.1,8.5
		c0,3-0.4,5.8-1.1,8.5c-0.8,2.6-1.9,5-3.4,6.9c-1.5,2-3.5,3.5-6,4.7c-2.4,1.1-5.3,1.7-8.7,1.7H340V0.4z M347.6,37.7h7.5
		c3,0,5.4-0.4,7.3-1.2c1.9-0.8,3.4-1.9,4.5-3.3c1.1-1.4,1.8-3,2.2-4.9s0.6-3.9,0.6-6.1c0-2.2-0.2-4.2-0.6-6.1
		c-0.4-1.9-1.1-3.5-2.2-4.9c-1.1-1.4-2.6-2.5-4.5-3.3c-1.9-0.8-4.3-1.2-7.3-1.2h-7.5V37.7z"/>
	<path class="st0" d="M395.7,0.4h8.1L420.6,44h-8.2l-4.1-11.5h-17.4L386.9,44H379L395.7,0.4z M393,26.6h13.3l-6.5-18.7h-0.2
		L393,26.6z"/>
</g>
</svg>
